<svg xmlns="http://www.w3.org/2000/svg" viewBox="-0.5 -0.5 16 16" id="Bluesky--Streamline-Font-Awesome.svg" height="16" width="16"><desc>Bluesky Streamline Icon: https://streamlinehq.com</desc><!--! Font Awesome Free 6.5.2 by @fontawesome - https://fontawesome.com License - https://fontawesome.com/license/free (Icons: CC BY 4.0, Fonts: SIL OFL 1.1, Code: MIT License) Copyright 2024 Fonticons, Inc.--><path d="M10.557395833333333 8.488049479166666c-0.08421875 -0.010208333333333333 -0.1709895833333333 -0.020416666666666666 -0.2552083333333333 -0.03317708333333333 0.08677083333333332 0.010208333333333333 0.1709895833333333 0.02296875 0.2552083333333333 0.03317708333333333ZM7.499999999999999 6.762841145833333c-0.6660937499999999 -1.2939062499999998 -2.4780729166666666 -3.7056249999999995 -4.162447916666666 -4.894895833333333 -1.6154687499999998 -1.1407812499999999 -2.2305208333333333 -0.9442708333333332 -2.636302083333333 -0.7605208333333333C0.23421874999999998 1.3192473958333333 0.15 2.0363828125 0.15 2.4574765624999997s0.2322395833333333 3.460625 0.38281249999999994 3.9684895833333327c0.49765624999999997 1.6767187499999998 2.2739062499999996 2.24328125 3.909791666666666 2.0595312499999996 0.08421875 -0.012760416666666665 0.1684375 -0.02296875 0.2552083333333333 -0.035729166666666666 -0.08421875 0.012760416666666665 -0.1684375 0.02552083333333333 -0.2552083333333333 0.035729166666666666 -2.39640625 0.3572916666666667 -4.52484375 1.2301041666666666 -1.7328645833333332 4.335989583333333 3.0701562499999997 3.179895833333333 4.205833333333333 -0.68140625 4.7902604166666665 -2.638854166666666 0.5844270833333333 1.9574479166666665 1.255625 5.678385416666666 4.736666666666666 2.638854166666666 2.6133333333333333 -2.638854166666666 0.7171354166666666 -3.9812499999999997 -1.679270833333333 -4.335989583333333 -0.08421875 -0.010208333333333333 -0.1709895833333333 -0.020416666666666666 -0.2552083333333333 -0.03317708333333333 0.08677083333333332 0.010208333333333333 0.1709895833333333 0.02296875 0.2552083333333333 0.03317708333333333 1.6358854166666665 0.18119791666666665 3.409583333333333 -0.3853645833333333 3.909791666666666 -2.0595312499999996 0.15057291666666667 -0.5078645833333333 0.38281249999999994 -3.54484375 0.38281249999999994 -3.9684895833333327s-0.08421875 -1.1407812499999999 -0.5512499999999999 -1.3500520833333332c-0.40322916666666664 -0.18119791666666665 -1.0208333333333333 -0.38026041666666666 -2.6337499999999996 0.7605208333333333 -1.6869270833333334 1.1892708333333333 -3.4989062499999997 3.600989583333333 -4.165 4.894895833333333Z" stroke-width="1"></path></svg>